<?xml version="1.0" encoding="UTF-8"?>
<svg width="16px" height="16px" viewBox="0 0 16 16" version="1.1" xmlns="http://www.w3.org/2000/svg" xmlns:xlink="http://www.w3.org/1999/xlink">
    <title>1BF800C0-EE34-4597-B41C-24FD45BC9891</title>
    <g id="Handover" stroke="none" stroke-width="1" fill="none" fill-rule="evenodd">
        <g id="Handover---Dev" transform="translate(-653.000000, -391.000000)" fill="#5BAAA2" fill-rule="nonzero">
            <g id="Assets/Icons/Favicon/16" transform="translate(653.000000, 391.000000)">
                <path d="M8.00044556,0 C6.92130326,0 5.87424116,0.211206416 4.88777499,0.628272251 C4.69440267,0.710259552 4.49924812,0.802049683 4.3058758,0.902751476 L4.16418825,0.97671828 L4.16418825,8.77977052 C4.16418825,9.98730088 5.14708995,10.9702573 6.35455305,10.9702573 C7.52637148,10.9702573 8.48699527,10.0532472 8.5422445,8.87958115 L8.54491785,8.77977052 C8.54491785,8.17288626 9.03859649,7.67918013 9.64544695,7.67918013 C10.2522974,7.67918013 10.7459761,8.17288626 10.7459761,8.77977052 L10.7459761,14.3593628 C9.8780284,14.735435 8.95483152,14.9261446 7.99955444,14.9261446 C4.18111947,14.9261446 1.07468672,11.8195388 1.07468672,8.00089117 C1.07468672,6.2435112 1.73411306,4.56722736 2.93177388,3.28216553 L3.0021721,3.2064164 L3.0021721,1.72440682 L2.56017822,2.13434332 C0.932999165,3.64397906 0,5.78188704 0,8 C0,12.4112733 3.58852687,16 7.99955444,16 C9.07869674,16 10.1257588,15.7887936 11.112225,15.3717277 C11.3055973,15.2897404 11.501643,15.1970592 11.6941242,15.0972485 L11.8358118,15.0232817 L11.8358118,8.77531469 L11.8340295,8.59708143 L11.8260095,8.4945973 L11.8046227,8.33686087 L11.7912559,8.33686087 C11.5871902,7.3146931 10.7067669,6.58839256 9.64544695,6.58839256 C9.25068226,6.58839256 8.87552214,6.68909435 8.54402673,6.88336861 L8.54402673,5.03063384 L7.45508215,5.03063384 L7.45508215,8.77887936 C7.45508215,9.38576362 6.96140351,9.87946976 6.35455305,9.87946976 C5.74770259,9.87946976 5.25402395,9.38576362 5.25402395,8.77887936 L5.25402395,7.3146931 L6.30108605,7.3146931 L6.30108605,6.22568787 L5.25402395,6.22568787 L5.25402395,1.64152835 C6.1219716,1.26545617 7.04516848,1.07474657 8.00044556,1.07474657 C11.8188805,1.07474657 14.9253133,4.18135234 14.9253133,8 C14.9253133,9.75737997 14.2658869,11.4336638 13.0682261,12.7187256 L12.9978279,12.7944748 L12.9978279,14.2755932 L13.4398218,13.8647655 C15.0670008,12.3551298 16,10.2172218 16,7.99910883 C16,3.58872675 12.4114731,0 8.00044556,0 Z" id="Path"></path>
            </g>
        </g>
    </g>
</svg>