<?xml version="1.0" encoding="UTF-8"?>
<svg width="24px" height="24px" viewBox="0 0 24 24" version="1.1" xmlns="http://www.w3.org/2000/svg" xmlns:xlink="http://www.w3.org/1999/xlink">
    <title>9C6C1B30-B6F0-4C31-9F8D-1C05D8045E61</title>
    <g id="UI---Opção-1" stroke="none" stroke-width="1" fill="none" fill-rule="evenodd">
        <g id="1.0-Home---Desktop" transform="translate(-369.000000, -1406.000000)">
            <g id="Fale-com-a-gente" transform="translate(369.000000, 1246.000000)">
                <g id="Contatos" transform="translate(0.000000, 40.000000)">
                    <g id="Assets/Icons/Social/Instagram" transform="translate(0.000000, 120.000000)">
                        <rect id="Rectangle" x="0" y="0" width="24" height="24"></rect>
                        <path d="M12,5.62225 C14.403,5.62225 14.688,5.63125 15.6375,5.67475 C18.0765,5.78575 19.21575,6.943 19.32675,9.364 C19.37025,10.31275 19.3785,10.59775 19.3785,13.00075 C19.3785,15.4045 19.3695,15.68875 19.32675,16.6375 C19.215,19.05625 18.07875,20.21575 15.6375,20.32675 C14.688,20.37025 14.4045,20.37925 12,20.37925 C9.597,20.37925 9.312,20.37025 8.36325,20.32675 C5.91825,20.215 4.785,19.0525 4.674,16.63675 C4.6305,15.688 4.6215,15.40375 4.6215,13 C4.6215,10.597 4.63125,10.31275 4.674,9.36325 C4.78575,6.943 5.922,5.785 8.36325,5.674 C9.31275,5.63125 9.597,5.62225 12,5.62225 L12,5.62225 Z M12,4 C9.55575,4 9.24975,4.0105 8.28975,4.054 C5.02125,4.204 3.20475,6.0175 3.05475,9.289 C3.0105,10.24975 3,10.55575 3,13 C3,15.44425 3.0105,15.751 3.054,16.711 C3.204,19.9795 5.0175,21.796 8.289,21.946 C9.24975,21.9895 9.55575,22 12,22 C14.44425,22 14.751,21.9895 15.711,21.946 C18.9765,21.796 20.7975,19.9825 20.94525,16.711 C20.9895,15.751 21,15.44425 21,13 C21,10.55575 20.9895,10.24975 20.946,9.28975 C20.799,6.02425 18.98325,4.20475 15.71175,4.05475 C14.751,4.0105 14.44425,4 12,4 Z M12,8.3785 C9.44775,8.3785 7.3785,10.44775 7.3785,13 C7.3785,15.55225 9.44775,17.62225 12,17.62225 C14.55225,17.62225 16.6215,15.553 16.6215,13 C16.6215,10.44775 14.55225,8.3785 12,8.3785 Z M12,16 C10.34325,16 9,14.6575 9,13 C9,11.34325 10.34325,10 12,10 C13.65675,10 15,11.34325 15,13 C15,14.6575 13.65675,16 12,16 Z M16.8045,7.11625 C16.2075,7.11625 15.72375,7.6 15.72375,8.19625 C15.72375,8.7925 16.2075,9.27625 16.8045,9.27625 C17.40075,9.27625 17.88375,8.7925 17.88375,8.19625 C17.88375,7.6 17.40075,7.11625 16.8045,7.11625 Z" id="Shape" fill="#494D4D" fill-rule="nonzero"></path>
                    </g>
                </g>
            </g>
        </g>
    </g>
</svg>