<?xml version="1.0" encoding="UTF-8"?>
<svg width="32px" height="43px" viewBox="0 0 32 43" version="1.1" xmlns="http://www.w3.org/2000/svg" xmlns:xlink="http://www.w3.org/1999/xlink">
    <title>30845C27-B2F4-437A-8187-C23D85CC1D38</title>
    <g id="UI---Opção-1" stroke="none" stroke-width="1" fill="none" fill-rule="evenodd">
        <g id="1.0-Home---Desktop" transform="translate(-1289.000000, -2041.000000)" fill="#C81B7C">
            <g id="Assets/UI/Desk/Footer" transform="translate(0.000000, 2017.000000)">
                <path d="M1300.294,53.6904762 C1300.8491,53.6904762 1301.12666,53.890119 1301.26543,54.0897619 C1301.40421,54.3559524 1301.40421,54.7552381 1301.40421,55.6203571 L1301.40435,55.7310215 C1301.40661,56.2858333 1301.44502,56.2858333 1302.09809,56.2858333 C1302.23686,56.2858333 1302.65319,56.2192857 1302.86136,56.2858333 C1303.06952,56.352381 1303.41646,56.5520238 1303.41646,57.2175 C1303.41646,57.6167857 1303.27768,57.8829762 1303.06952,58.0160714 C1302.86136,58.1491667 1302.37564,58.1491667 1301.95931,58.1491667 C1301.40421,58.1491667 1301.40421,58.2822619 1301.40421,58.9477381 L1301.40421,63.5395238 C1301.40421,64.205 1301.61237,64.737381 1302.23686,64.8704762 C1302.65319,64.9370238 1303.2083,64.737381 1303.48585,64.4046429 C1303.7337,64.1193987 1303.94614,63.995476 1304.11051,64.0086124 C1304.13257,63.9439175 1304.16359,63.8787513 1304.20345,63.8148017 C1304.413,63.5458854 1304.55269,63.2769691 1304.69238,63.0080529 C1304.83208,62.6719076 1304.76223,62.4029913 1304.55269,62.4702204 C1304.34315,62.5374494 1304.13361,62.6719076 1304.06376,62.7391366 C1303.50498,63.2097401 1303.29544,62.6046785 1303.57483,62.134075 C1303.99391,61.3945553 1304.20345,60.9911809 1304.34315,60.2516612 C1304.48284,59.7810578 1304.69238,58.3020184 1305.46071,57.2935824 C1306.01948,56.5540627 1306.85765,55.9490011 1308.1149,55.814543 C1309.65155,55.5456267 1310.62941,56.0162302 1311.18819,56.7557499 C1311.32788,57.0246661 1311.74697,57.8314149 1311.95651,58.3692474 C1312.2359,59.1759962 1312.65498,59.0415381 1313.14391,58.7053927 C1313.63284,58.3692474 1313.98208,58.9070799 1313.63284,59.5793706 C1313.4233,60.049974 1313.00422,60.7222647 1312.58513,61.1928681 C1312.37559,61.4617844 1311.88666,61.6634716 1311.39773,61.6634716 L1311.39773,61.6634716 L1307.76567,61.6634716 C1307.41643,61.6634716 1307.20689,61.8651588 1307.20689,62.2013041 C1307.20689,62.8735947 1307.20689,63.2097401 1307.27674,63.7475726 C1307.34658,64.3526342 1307.76567,64.7560086 1308.32445,64.8232376 C1308.88322,64.8904667 1309.37216,64.6887795 1309.5817,64.218176 C1309.79124,63.8148017 1309.93094,63.2097401 1310.97865,63.2097401 C1311.46758,63.2097401 1312.0962,63.4786563 1311.88666,64.5543214 C1311.67712,65.7644445 1310.55956,66.7056514 1309.37216,66.9073386 C1308.39429,67.1090258 1307.48628,66.9745677 1306.71796,66.5711933 C1306.22903,66.302277 1305.74009,65.8316736 1306.01948,64.8904667 C1306.15918,64.5543214 1306.15918,64.3526342 1306.01948,64.2854051 C1305.87979,64.218176 1305.6004,64.2854051 1305.11147,64.6887795 C1304.87451,64.875384 1304.65749,64.9277054 1304.48293,64.8911015 C1304.48174,65.005629 1304.47314,65.1329187 1304.45728,65.2697619 C1304.31851,65.5359524 1304.11034,66.0683333 1303.69401,66.467619 C1303.34707,66.8003571 1302.72258,67 1302.16748,67 C1301.4736,67 1300.64094,66.7338095 1300.294,66.467619 C1299.87767,66.134881 1299.53073,65.6025 1299.46134,65.5359524 C1299.32257,65.3363095 1299.1144,65.4028571 1298.83685,65.4694048 C1298.28175,65.6025 1297.58787,66.134881 1297.31032,65.8021429 C1297.03276,65.5359524 1297.93481,64.6042857 1298.28175,64.205 C1298.90624,63.4729762 1299.04502,62.7409524 1299.04502,62.275119 L1299.04502,62.275119 L1299.04502,58.6815476 C1299.04502,58.3488095 1298.90624,58.1491667 1298.5593,58.1491667 C1298.48991,58.1491667 1298.21236,58.1491667 1298.0042,58.082619 C1297.79603,58.0160714 1297.51848,57.749881 1297.51848,57.1509524 C1297.51848,56.685119 1297.65726,56.352381 1297.93481,56.2858333 C1298.14297,56.2192857 1298.48991,56.2192857 1298.69808,56.2192857 C1299.04502,56.2192857 1299.18379,56.1527381 1299.18379,55.82 C1299.18379,55.0879762 1299.04502,54.4890476 1299.25318,54.1563095 C1299.39196,53.9566667 1299.66951,53.6904762 1300.294,53.6904762 Z M1309.79124,58.4364765 C1309.51185,57.965873 1308.95307,57.7641858 1308.32445,57.8314149 C1307.76567,57.965873 1307.20689,58.6381637 1307.13704,59.3104543 C1307.13704,59.7810578 1307.34658,59.982745 1307.48628,59.982745 L1307.48628,59.982745 L1309.79124,59.982745 C1310.00078,59.982745 1310.07063,59.8482868 1310.00078,59.6465997 C1310.00078,59.3776834 1310.00078,58.7726218 1309.79124,58.4364765 Z M1317.32544,42.0944166 C1317.8575,41.564311 1318.32306,41.232995 1318.78861,41.4980478 C1318.98814,41.6968374 1318.7221,42.3594694 1318.58909,43.1546278 C1318.52258,43.6184702 1318.52258,44.1485757 1318.52258,44.8112077 L1318.52258,49.9797371 L1318.52497,50.1102252 C1318.54908,50.731928 1318.75952,50.8949975 1319.32068,50.7086323 C1320.05226,50.4435795 1320.51782,49.6484211 1320.78385,49.9797371 C1321.04988,50.0460003 1321.11639,50.7086323 1320.71734,51.5700539 C1320.31829,52.4977386 1319.71972,53.0278442 1319.05464,53.3591602 C1318.7221,53.5579498 1318.12353,53.6904762 1317.39195,53.6904762 C1316.52734,53.6904762 1316.06179,52.8953178 1316.06179,52.1001594 L1316.06179,52.1001594 L1316.06179,46.0702085 C1316.06179,45.7388925 1315.99528,45.4075765 1315.92877,45.0762605 C1315.72925,44.4798917 1315.26369,44.1485757 1314.73163,44.1485757 C1314.19957,44.0823125 1313.6675,44.4136285 1313.46798,44.8774709 C1313.33496,45.1425237 1313.26846,45.5401029 1313.26846,45.9376821 L1313.26846,45.9376821 L1313.26846,51.2387379 L1313.27171,51.3713319 C1313.31046,52.0862093 1313.68851,51.395677 1314.06655,51.8351067 C1314.39909,52.1664226 1314.06655,52.6965282 1313.601,53.0941074 C1313.40147,53.292897 1313.00242,53.4916866 1312.53687,53.5579498 C1312.07131,53.624213 1311.60576,53.5579498 1311.33973,53.4254234 C1310.80766,53.1603706 1310.67465,52.5640018 1310.67465,52.298949 L1310.67465,52.298949 L1310.67465,45.0762605 C1310.67465,44.3473653 1310.60814,44.2148389 1310.00957,44.4136285 C1309.14497,44.7449445 1308.6129,44.6786813 1308.6129,44.1485757 C1308.6129,43.6184702 1309.01195,43.1546278 1309.61052,42.6245222 C1310.00957,42.226943 1310.60814,41.7631006 1311.20671,41.6968374 C1311.40624,41.6305742 1311.73877,41.6305742 1311.9383,41.6968374 C1312.33735,41.7631006 1312.73639,41.9618902 1312.86941,42.4919958 C1312.93592,42.6907854 1313.13544,42.6907854 1313.33496,42.558259 C1313.46798,42.4257326 1313.80052,42.1606798 1314.53211,42.0281534 C1314.79814,41.9618902 1315.46322,42.0281534 1316.1283,42.226943 C1316.72687,42.4919958 1316.92639,42.4257326 1317.32544,42.0944166 Z M1304.27853,41.4119122 C1305.32379,41.3454045 1306.43437,41.7444504 1307.15299,42.5425423 C1307.74095,43.1411112 1308.00226,43.9392031 1308.06759,44.737295 L1308.06759,44.737295 L1308.08278,44.8837208 C1308.14452,45.4413317 1308.22337,45.6632862 1308.52489,45.6018946 C1308.78621,45.5353869 1308.98219,45.2028486 1309.30883,45.2028486 C1309.76614,45.2028486 1309.50482,45.9344329 1309.04752,46.7990324 C1308.65555,47.5306166 1308.13292,48.1956932 1308.13292,49.1933081 C1308.13292,49.5258464 1308.19825,50.4569536 1308.19825,50.8559995 C1308.3289,51.3215531 1309.17818,50.5234612 1309.57015,50.6564765 C1309.89679,50.7894918 1309.11285,52.5851986 1308.06759,53.3832905 C1307.08766,53.9153517 1306.56503,53.6493211 1306.23839,53.3832905 C1306.0424,53.2502752 1305.91174,52.9842445 1305.91174,52.8512292 C1305.84642,52.7182139 1305.78109,52.6517062 1305.5851,52.7847216 C1304.80116,53.3832905 1304.01721,53.6493211 1303.10261,53.5163058 C1302.12268,53.3167828 1301.40407,52.7847216 1300.94677,51.9866297 C1300.68545,51.5875837 1300.62012,51.0555225 1300.35881,51.1885378 C1299.83618,51.3880608 1299.57486,51.5210761 1299.37888,51.2550454 C1299.11756,50.8559995 1299.83618,49.6588617 1300.09749,49.1933081 C1300.42414,48.5282315 1300.75078,47.9961702 1301.07742,47.5971243 C1301.53472,46.9985554 1302.18801,46.4664941 1303.36393,46.1339558 C1304.2132,45.8679252 1305.19313,45.8014175 1305.45444,45.7349099 C1305.65043,45.7349099 1305.65043,45.6018946 1305.65043,45.5353869 C1305.65043,45.136341 1305.65043,44.8038027 1305.5851,44.4712644 C1305.51977,44.0057108 1305.06247,43.6731725 1304.53984,43.6066648 C1303.95188,43.5401572 1303.49458,43.8061878 1303.2986,44.3382491 C1303.2986,44.3382491 1303.10261,45.3358639 1302.05735,45.2693563 C1301.46939,45.2028486 1301.14275,45.0698333 1301.01209,44.6707874 C1300.94677,44.4712644 1301.01209,44.0057108 1301.07742,43.6731725 C1301.20808,43.1411112 1301.46939,42.7420653 1301.86137,42.3430194 C1302.31867,41.8774658 1303.42925,41.4119122 1304.27853,41.4119122 Z M1290.85413,41.4839225 C1291.38376,41.3468123 1291.78098,41.4153674 1292.37681,41.4839225 C1292.77404,41.5524776 1292.97265,41.8952529 1293.10505,42.3751384 C1293.56848,43.951905 1293.9657,45.3915615 1294.36292,46.899773 C1294.49533,47.3796585 1294.82635,48.6136498 1294.89255,48.7507599 C1294.95876,48.8878701 1295.15737,48.8878701 1295.22357,48.6822049 C1295.55459,47.5167687 1295.88561,46.2142223 1296.21663,44.9802311 C1296.41524,44.2261253 1295.7532,44.911676 1295.22357,44.7060108 C1294.69394,44.5003456 1295.22357,43.2663543 1295.95181,42.5808036 C1296.87866,41.6895877 1297.20968,41.5524776 1298.20274,41.5524776 L1298.20274,41.5524776 L1298.86477,41.5524776 C1299.12959,41.7581428 1299.46061,42.1009181 1299.262,43.0606891 C1298.79857,44.5689006 1298.33515,46.0771122 1297.87172,47.6538788 C1297.34209,49.3677556 1296.74626,51.2872975 1296.34903,52.6583989 C1296.34903,52.8640641 1296.15042,53.75528 1295.09117,53.686725 C1294.03191,53.686725 1294.16431,53.1382844 1294.23052,52.8640641 C1294.29672,52.726954 1294.56154,52.1785134 1294.62774,52.0414033 C1294.95876,51.4244077 1295.09117,51.1501874 1294.82635,50.9445222 C1294.56154,50.738857 1294.29672,50.9445222 1293.8333,51.2187425 C1293.50228,51.4244077 1293.30367,51.0816323 1293.10505,50.4646367 L1293.10505,50.4646367 L1292.69749,49.1385245 C1292.28165,47.8209818 1291.84719,46.5227201 1291.44996,45.1858963 C1291.11894,44.0204601 1290.92033,44.0890151 1289.86107,44.5689006 C1289.13283,44.8431209 1288.73561,44.2946804 1289.19904,43.4720195 C1289.72867,42.5122485 1290.05969,41.6210326 1290.85413,41.4839225 Z M1305.5851,47.5971243 C1305.5851,47.3976013 1305.38911,47.3310937 1305.1278,47.3976013 C1303.55991,47.6636319 1302.97195,48.3952162 1303.03728,49.791877 C1303.03728,50.5899689 1303.49458,51.1220301 1304.2132,51.1220301 C1304.93181,51.1220301 1305.45444,50.6564765 1305.51977,49.8583846 C1305.5851,49.0602927 1305.5851,48.3952162 1305.5851,47.5971243 Z M1308.1826,29.2274291 C1309.56422,28.9556476 1310.80767,29.1594837 1311.7748,30.2466097 C1312.18929,30.7222274 1312.46561,31.3337358 1312.60377,31.9452442 C1312.74194,32.7605887 1312.74194,33.3720971 1312.74194,34.255387 C1312.74194,34.7989501 1312.39653,35.0707316 1311.98205,35.0707316 L1311.98205,35.0707316 L1308.25168,35.0707316 C1307.90627,35.0707316 1307.76811,35.138677 1307.76811,35.4784038 C1307.83719,36.0219669 1307.76811,36.4975845 1307.83719,37.0411475 C1307.90627,37.6526559 1308.32076,38.1282736 1308.87341,38.196219 C1309.42605,38.3321097 1309.77146,38.196219 1310.11686,37.7885467 C1310.25502,37.5847106 1310.46227,37.4488198 1310.80767,36.9052568 C1311.29124,36.225803 1313.01826,36.225803 1312.60377,37.4488198 C1312.46561,38.196219 1312.25837,38.5359458 1312.25837,38.5359458 C1312.05113,39.0795089 1311.63664,39.4871811 1311.15308,39.826908 C1310.66951,40.1666349 1310.04778,40.370471 1309.56422,40.370471 C1309.28789,40.4384164 1309.01157,40.1666349 1309.14973,39.826908 C1309.28789,39.4871811 1309.35697,39.283345 1309.14973,39.2153996 C1308.80433,39.0795089 1308.528,39.2153996 1308.11352,39.5551265 C1307.49179,40.0986895 1307.0773,39.8948534 1306.80098,39.6910173 C1306.11017,39.0795089 1305.62661,38.196219 1305.48844,37.1090929 C1305.41936,36.5655299 1305.35028,35.2066223 1305.35028,35.0707316 C1305.35028,34.255387 1305.14304,33.9156601 1304.45223,34.1874417 C1303.55418,34.5951139 1303.27786,33.9836055 1303.55418,33.4400425 C1303.76142,32.9644249 1304.24499,32.624698 1304.9358,31.9452442 C1305.83385,31.0619543 1305.97201,30.5863366 1306.66282,29.9748282 L1306.66282,29.9748282 L1306.82162,29.8507483 C1307.20035,29.5692793 1307.63859,29.3463335 1308.1826,29.2274291 Z M1301.31138,24 C1301.75195,24 1301.87783,24.5512339 1301.1855,25.7915101 C1300.55612,26.962882 1300.49318,28.6854879 1300.49318,29.305626 L1300.49381,31.1716026 C1300.49612,33.6999444 1300.50679,36.8906785 1300.55612,37.1607086 C1300.61905,37.5052297 1300.74493,37.7808467 1300.99669,37.9186551 C1301.31138,38.0564636 1301.81489,38.0564636 1302.12958,37.6430382 C1302.50721,37.2296128 1302.57015,36.6783789 1302.88485,36.402762 C1303.57717,35.8515281 1303.51423,36.9539959 1303.32542,37.7808467 C1303.32542,38.1253678 1303.01072,39.2967398 1302.3184,39.8479737 C1301.68901,40.3303033 1301.12256,40.4681118 1300.55612,40.3303033 C1299.98967,40.2613991 1299.17146,39.7790694 1298.85677,39.2278356 C1298.54208,38.6766017 1298.54208,38.1942721 1298.79383,37.6430382 C1299.04559,37.0918043 1299.17146,36.8850916 1299.36028,36.402762 C1299.73791,35.6448154 1299.29734,35.3002943 1298.79383,35.6448154 C1298.4162,35.9204324 1298.29032,35.0246773 1298.29032,33.7844011 L1298.29032,33.7844011 L1298.29032,25.5847974 C1298.29032,25.171372 1298.4162,24.895755 1298.66795,24.7579466 C1298.73089,24.6890423 1298.91971,24.6890423 1299.04559,24.6890423 C1299.17146,24.6890423 1299.67497,24.6201381 1300.11554,24.4134254 C1300.61905,24.1378085 1300.93375,24 1301.31138,24 Z M1310.66951,32.6926433 C1310.66951,31.7414081 1309.9787,31.1298997 1309.01157,31.2657904 C1308.1826,31.4016812 1307.56087,32.5567526 1307.90627,33.3041517 C1307.90627,33.3720971 1308.04444,33.4400425 1308.11352,33.4400425 L1308.11352,33.4400425 L1310.46227,33.4400425 C1310.60043,33.4400425 1310.66951,33.3720971 1310.66951,33.2362064 L1310.66951,33.2362064 Z" id="LogoLevante"></path>
            </g>
        </g>
    </g>
</svg>