<?xml version="1.0" encoding="UTF-8"?>
<svg width="266px" height="99px" viewBox="0 0 266 99" version="1.1" xmlns="http://www.w3.org/2000/svg" xmlns:xlink="http://www.w3.org/1999/xlink">
    <title>1D516A29-E385-4AC2-BC34-39BD708200AF</title>
    <g id="UI---Opção-1" stroke="none" stroke-width="1" fill="none" fill-rule="evenodd">
        <g id="1.0-Home---Desktop" transform="translate(-369.000000, -40.000000)" fill-rule="nonzero">
            <g id="Intro" transform="translate(369.000000, 0.000000)">
                <g id="Assets/Logos/Horizontal-1" transform="translate(0.000000, 40.000000)">
                    <path d="M49.341358,0.514143646 C42.713251,0.514143646 36.2821811,1.81044199 30.2232922,4.37022099 C29.0355967,4.87342541 27.8369547,5.43679558 26.6492593,6.05486188 L25.7790123,6.50883978 L25.7790123,54.4007735 C25.7790123,61.8120994 31.8160082,67.8450829 39.2322634,67.8450829 C46.4295885,67.8450829 52.3297531,62.2168508 52.6690947,55.0133702 L52.6855144,54.4007735 C52.6855144,50.6759669 55.7176955,47.6458011 59.4449794,47.6458011 C63.1722634,47.6458011 66.2044444,50.6759669 66.2044444,54.4007735 L66.2044444,88.6460221 C60.8734979,90.9541989 55.2032099,92.1246961 49.3358848,92.1246961 C25.8830041,92.1246961 6.80325103,73.0576243 6.80325103,49.6203315 C6.80325103,38.8342541 10.8534568,28.5459116 18.2095062,20.6587293 L18.641893,20.1938122 L18.641893,11.0978453 L15.9271605,13.6138674 C5.93300412,22.8793923 0.202510288,36.0009945 0.202510288,49.6148619 C0.202510288,76.6894475 22.2432922,98.7155801 49.3358848,98.7155801 C55.9639918,98.7155801 62.3950617,97.4192818 68.4539506,94.8595028 C69.6416461,94.3562983 70.8457613,93.7874586 72.0279835,93.1748619 L72.8982305,92.720884 L72.8982305,54.3734254 L72.887284,53.2795028 L72.8380247,52.6504972 L72.7066667,51.6823757 L72.6245679,51.6823757 C71.3711934,45.4087293 65.9636214,40.9509945 59.4449794,40.9509945 C57.0203292,40.9509945 54.7160905,41.5690608 52.6800412,42.7614365 L52.6800412,31.3901105 L45.9917284,31.3901105 L45.9917284,54.3953039 C45.9917284,58.1201105 42.9595473,61.1502762 39.2322634,61.1502762 C35.5049794,61.1502762 32.4727984,58.1201105 32.4727984,54.3953039 L32.4727984,45.4087293 L38.9038683,45.4087293 L38.9038683,38.7248619 L32.4727984,38.7248619 L32.4727984,10.5891713 C37.8037449,8.28099448 43.4740329,7.11049724 49.341358,7.11049724 C72.7942387,7.11049724 91.8739918,26.1775691 91.8739918,49.6148619 C91.8739918,60.4009392 87.823786,70.6892818 80.4677366,78.5764641 L80.0353498,79.0413812 L80.0353498,88.1318785 L82.7500823,85.6103867 C92.7442387,76.3448619 98.4747325,63.2232597 98.4747325,49.6093923 C98.4747325,22.5402762 76.4339506,0.514143646 49.341358,0.514143646 Z" id="Path" fill="#5BAAA2"></path>
                    <path d="M164.591605,71.7996133 C165.680782,71.7996133 166.430617,72.0512155 166.841111,72.5598895 C167.251605,73.0685635 167.459588,73.8780663 167.459588,74.9829282 L167.459588,77.6849171 L165.773827,77.6849171 L165.773827,74.9829282 C165.773827,74.5727072 165.658889,74.2445304 165.423539,74.0038674 C165.193663,73.7632044 164.88716,73.6428729 164.509506,73.6428729 C163.743251,73.6428729 163.360123,74.0913812 163.360123,74.9829282 L163.360123,76.9355801 C163.360123,77.3293923 163.409383,77.6356906 163.507901,77.8599448 C163.60642,78.0841989 163.80893,78.3576796 164.109959,78.6749171 C164.536872,79.1234254 164.95284,79.5062983 165.35786,79.8290055 C165.757407,80.1517127 166.140535,80.5181768 166.496296,80.9283978 C166.90679,81.4097238 167.185926,81.8801105 167.32823,82.3340884 C167.470535,82.7880663 167.541687,83.3733149 167.541687,84.0898343 L167.541687,85.8838674 C167.541687,86.9395028 167.289918,87.699779 166.791852,88.1756354 C166.293786,88.6460221 165.549424,88.8866851 164.569712,88.8866851 C163.551687,88.8866851 162.796379,88.6405525 162.303786,88.1482873 C161.811193,87.6560221 161.564897,86.8738674 161.564897,85.8072928 L161.564897,83.1053039 L163.228765,83.1053039 L163.228765,85.7580663 C163.228765,86.1682873 163.343704,86.4964641 163.579053,86.7371271 C163.80893,86.9777901 164.126379,87.0981215 164.514979,87.0981215 C165.303128,87.0981215 165.691728,86.6496133 165.691728,85.7580663 L165.691728,83.8437017 L165.680782,83.8437017 C165.680782,83.4881768 165.626049,83.1764088 165.522058,82.9083978 C165.412593,82.6403867 165.199136,82.3122099 164.881687,81.9183978 C164.504033,81.4753591 164.088066,81.0432597 163.62284,80.6330387 C163.157613,80.2228177 162.758066,79.8235359 162.418724,79.4297238 C162.062963,79.0359116 161.827613,78.6420994 161.723621,78.2537569 C161.614156,77.8599448 161.564897,77.3458011 161.564897,76.7003867 L161.564897,74.9883978 C161.564897,73.8124309 161.816667,72.9865193 162.314733,72.510663 C162.812798,72.0402762 163.57358,71.7996133 164.591605,71.7996133 Z M262.672263,71.788674 C264.620741,71.788674 265.594979,72.8771271 265.594979,75.0540331 L265.594979,86.7261878 C265.594979,87.12 265.605926,87.4864641 265.622346,87.8255801 C265.638765,88.1646961 265.677078,88.4327072 265.731811,88.6296133 L264.035103,88.6296133 L264.035103,88.6405525 C263.963951,88.4272376 263.925638,88.0935912 263.925638,87.6505525 C263.476831,88.4709945 262.820041,88.8812155 261.944321,88.8812155 C261.194486,88.8812155 260.608848,88.6733702 260.187407,88.2631492 C259.765967,87.8529282 259.557984,87.1856354 259.557984,86.2558011 L259.557984,83.8163536 C259.557984,83.0123204 259.667449,82.339558 259.891852,81.7925967 C260.116255,81.2456354 260.417284,80.7861878 260.805885,80.4142541 C261.189012,80.0423204 261.637819,79.7250829 262.157778,79.4625414 C262.677737,79.2054696 263.230535,78.9483978 263.821646,78.6967956 L263.821646,75.0813812 C263.821646,74.6164641 263.734074,74.2609392 263.569877,74.009337 C263.400206,73.7577348 263.082757,73.6374033 262.617531,73.6374033 C262.135885,73.6374033 261.812963,73.7632044 261.654239,74.009337 C261.495514,74.2609392 261.413416,74.6164641 261.413416,75.0813812 L261.413416,78.5600552 L259.776914,78.5600552 L259.776914,75.0540331 C259.776914,73.9655801 260.00679,73.1506077 260.46107,72.6036464 C260.91535,72.0566851 261.654239,71.788674 262.672263,71.788674 Z M117.050947,71.7941436 C118.068971,71.7941436 118.80786,72.1059116 119.26214,72.7294475 C119.71642,73.3529834 119.946296,74.1734254 119.946296,75.1907735 L119.946296,78.7788398 L118.287901,78.7788398 L118.287901,75.1634254 C118.287901,74.1843646 117.877407,73.6920994 117.05642,73.6920994 C116.645926,73.6920994 116.339424,73.8233702 116.13144,74.0913812 C115.923457,74.3593923 115.824938,74.7258564 115.824938,75.1907735 L115.824938,85.5009945 C115.824938,86.5019337 116.235432,86.9996685 117.05642,86.9996685 C117.877407,86.9996685 118.287901,86.5074033 118.287901,85.5283425 L118.287901,81.8637017 L120.001029,81.8637017 L120.001029,85.5611602 C120.001029,86.5785083 119.765679,87.388011 119.289506,87.9841989 C118.818807,88.5803867 118.068971,88.8812155 117.050947,88.8812155 C116.032922,88.8812155 115.27214,88.5749171 114.774074,87.9568508 C114.276008,87.3387845 114.024239,86.5238122 114.024239,85.5064641 L114.024239,75.2235912 C114.024239,74.2062431 114.276008,73.3803315 114.774074,72.7458564 C115.27214,72.1113812 116.032922,71.7941436 117.050947,71.7941436 Z M132.726337,71.7996133 C133.744362,71.7996133 134.510617,72.0840331 135.01963,72.6583425 C135.528642,73.2271823 135.785885,74.0476243 135.785885,75.1196685 L135.785885,85.5885083 C135.785885,86.6605525 135.534115,87.4755249 135.01963,88.038895 C134.510617,88.6022652 133.744362,88.8812155 132.726337,88.8812155 C131.691893,88.8812155 130.920165,88.6022652 130.422099,88.038895 C129.924033,87.4755249 129.672263,86.6605525 129.672263,85.5885083 L129.672263,75.1196685 C129.672263,74.0476243 129.924033,73.2271823 130.422099,72.6583425 C130.920165,72.0895028 131.691893,71.7996133 132.726337,71.7996133 Z M221.409424,71.7996133 C222.427449,71.7996133 223.193704,72.0840331 223.702716,72.6583425 C224.211728,73.2271823 224.468971,74.0476243 224.468971,75.1196685 L224.468971,85.5885083 C224.468971,86.6605525 224.211728,87.4755249 223.702716,88.038895 C223.193704,88.6022652 222.427449,88.8812155 221.409424,88.8812155 C220.374979,88.8812155 219.603251,88.6022652 219.105185,88.038895 C218.607119,87.4755249 218.35535,86.6605525 218.35535,85.5885083 L218.35535,75.1196685 C218.35535,74.0476243 218.607119,73.2271823 219.105185,72.6583425 C219.603251,72.0895028 220.374979,71.7996133 221.409424,71.7996133 Z M207.239177,66.8167956 L207.239177,72.0621547 L209.116502,72.0621547 L209.116502,73.6975691 L207.239177,73.6975691 L207.239177,85.451768 C207.239177,86.13 207.359588,86.6058564 207.600412,86.8848066 C207.841235,87.1637569 208.246255,87.3004972 208.820947,87.3004972 L208.996091,87.3004972 L208.996091,87.3004972 C209.056296,87.3004972 209.116502,87.289558 209.171235,87.2731492 L209.171235,88.7444751 L209.165761,88.7444751 C209.078189,88.7772928 208.946831,88.8101105 208.77716,88.8374586 C208.60749,88.8648066 208.448765,88.8757459 208.306461,88.8757459 C207.321276,88.8757459 206.593333,88.5749171 206.111687,87.9677901 C205.630041,87.360663 205.389218,86.5238122 205.389218,85.451768 L205.389218,73.6975691 L204.612016,73.6975691 L204.612016,72.0621547 L205.389218,72.0621547 L205.389218,66.8167956 L207.239177,66.8167956 Z M179.106667,72.0566851 L179.106667,85.6596133 C179.106667,86.1573481 179.188765,86.5074033 179.34749,86.7043094 C179.506214,86.9012155 179.76893,86.9996685 180.124691,86.9996685 C180.4093,86.9996685 180.682963,86.9230939 180.940206,86.7699448 C181.197449,86.6167956 181.399959,86.3651934 181.542263,86.0096685 L181.542263,72.0621547 L183.392222,72.0621547 L183.392222,88.6350829 L181.810453,88.6350829 C181.794033,88.4436464 181.777613,88.2467403 181.77214,88.0498343 C181.761193,87.8529282 181.761193,87.6505525 181.761193,87.431768 C181.509424,87.8802762 181.186502,88.2193923 180.781481,88.4600552 C180.376461,88.7007182 179.916708,88.8210497 179.402222,88.8210497 C177.973704,88.8210497 177.256708,87.8638674 177.256708,85.9549724 L177.256708,72.0566851 L179.106667,72.0566851 Z M149.682469,71.8050829 C150.432305,71.8050829 150.97963,72.0457459 151.329918,72.5270718 C151.680206,73.0083978 151.85535,73.7850829 151.85535,74.8571271 L151.85535,88.6460221 L150.005391,88.6460221 L150.005391,74.9610497 C150.005391,74.4797238 149.923292,74.1351381 149.764568,73.9327624 C149.605844,73.7303867 149.326708,73.6264641 148.932634,73.6264641 C148.664444,73.6264641 148.396255,73.7085083 148.128066,73.8671271 C147.859877,74.0257459 147.651893,74.2882873 147.509588,74.6438122 L147.509588,88.6460221 L145.65963,88.6460221 L145.65963,72.0730939 L147.214033,72.0730939 C147.268765,72.4833149 147.296132,72.9044751 147.296132,73.331105 C147.547901,72.8661878 147.876296,72.4942541 148.28679,72.2207735 C148.697284,71.9418232 149.16251,71.8050829 149.682469,71.8050829 Z M237.993374,71.9035359 C238.245144,71.9035359 238.431235,71.9418232 238.557119,72.0129282 L238.557119,74.0749724 C238.469547,74.0038674 238.343663,73.9546409 238.184938,73.9272928 C238.026214,73.8999448 237.872963,73.8890055 237.730658,73.8890055 C237.446049,73.8890055 237.16144,73.9546409 236.887778,74.0913812 C236.608642,74.2226519 236.384239,74.490663 236.203621,74.8790055 L236.203621,88.6405525 L234.348189,88.6405525 L234.348189,72.0676243 L235.902593,72.0676243 C235.957325,72.4778453 235.984691,72.8825967 235.984691,73.2709392 C236.214568,72.7896133 236.499177,72.439558 236.827572,72.2262431 C237.155967,72.0129282 237.544568,71.9035359 237.993374,71.9035359 Z M195.285597,66.6034807 L195.285597,88.6405525 L193.435638,88.6405525 L193.435638,66.6034807 L195.285597,66.6034807 Z M249.859383,72.0676243 L249.859383,88.6405525 L248.009424,88.6405525 L248.009424,72.0676243 L249.859383,72.0676243 Z M263.821646,80.1790608 L263.816173,80.1790608 C263.279794,80.3759669 262.847407,80.5892818 262.519012,80.8190055 C262.190617,81.0487293 261.938848,81.3167403 261.769177,81.6066298 C261.599506,81.901989 261.490041,82.241105 261.435309,82.6239779 C261.380576,83.0068508 261.35321,83.4498895 261.35321,83.9476243 L261.35321,85.7143094 C261.35321,86.6277348 261.77465,87.0817127 262.612058,87.0817127 C262.880247,87.0817127 263.126543,86.9996685 263.350947,86.8410497 C263.57535,86.6824309 263.728601,86.4144199 263.821646,86.0370166 L263.821646,80.1790608 Z M132.726337,73.7030387 C132.222798,73.7030387 131.88893,73.8343094 131.719259,74.0913812 C131.549588,74.348453 131.46749,74.7094475 131.46749,75.1743646 L131.46749,85.5885083 C131.46749,86.0534254 131.549588,86.4034807 131.719259,86.6441436 C131.88893,86.8848066 132.222798,87.0051381 132.726337,87.0051381 C133.229877,87.0051381 133.563745,86.879337 133.733416,86.6332044 C133.903086,86.3816022 133.985185,86.0151381 133.985185,85.5338122 L133.985185,75.1743646 C133.985185,74.7094475 133.897613,74.348453 133.733416,74.0913812 C133.563745,73.8343094 133.229877,73.7030387 132.726337,73.7030387 Z M221.409424,73.7030387 C220.911358,73.7030387 220.572016,73.8343094 220.407819,74.0913812 C220.238148,74.348453 220.150576,74.7094475 220.150576,75.1743646 L220.150576,85.5885083 C220.150576,86.0534254 220.238148,86.4034807 220.407819,86.6441436 C220.57749,86.8848066 220.911358,87.0051381 221.409424,87.0051381 C221.90749,87.0051381 222.246831,86.879337 222.416502,86.6332044 C222.586173,86.3816022 222.668272,86.0151381 222.668272,85.5338122 L222.668272,75.1743646 C222.668272,74.7094475 222.5807,74.348453 222.416502,74.0913812 C222.246831,73.8343094 221.912963,73.7030387 221.409424,73.7030387 Z M249.859383,66.6034807 L249.859383,69.950884 L248.009424,69.950884 L248.009424,66.6034807 L249.859383,66.6034807 Z M220.648642,23.1528729 C222.558807,23.1528729 224.364979,23.5138674 226.056214,24.2303867 C227.747449,24.9469061 229.208807,25.9204972 230.445761,27.1511602 C231.677243,28.3818232 232.651481,29.8476796 233.368477,31.5377901 C234.085473,33.2279006 234.446708,35.0328729 234.446708,36.941768 L234.446708,37.2152486 L234.452181,37.2152486 L234.452181,50.730663 C234.452181,52.6067403 234.090947,54.3734254 233.373951,56.0252486 C232.656955,57.6770718 231.682716,59.1429282 230.451235,60.4118785 C229.219753,61.6808287 227.752922,62.681768 226.061687,63.4201657 C224.370453,64.1530939 222.56428,64.5250276 220.654115,64.5250276 C218.77679,64.5250276 217.00893,64.1585635 215.356008,63.4201657 C213.697613,62.681768 212.236255,61.6808287 210.966461,60.4118785 C209.696667,59.1429282 208.695062,57.6825414 207.956173,56.0252486 C207.217284,54.3679558 206.850576,52.6067403 206.850576,50.730663 L209.609095,50.730663 C209.609095,52.2402762 209.90465,53.6623757 210.490288,55.0079006 C211.081399,56.3479558 211.869547,57.518453 212.865679,58.508453 C213.856337,59.5039227 215.027613,60.291547 216.36856,60.8822652 C217.709506,61.4729834 219.138025,61.7628729 220.648642,61.7628729 C222.230412,61.7628729 223.69177,61.4675138 225.038189,60.8822652 C226.379136,60.291547 227.550412,59.5039227 228.54107,58.508453 C229.537202,57.5129834 230.30893,56.3479558 230.861728,55.0079006 C231.414527,53.6623757 231.688189,52.2402762 231.688189,50.730663 L231.688189,45.2172928 C230.434815,46.8745856 228.874938,48.2037017 226.997613,49.2155801 C225.120288,50.2274586 223.007613,50.730663 220.648642,50.730663 C218.771317,50.730663 217.003457,50.3696685 215.350535,49.6531492 C213.69214,48.9366298 212.230782,47.9630387 210.960988,46.7323757 C209.691193,45.5017127 208.689588,44.0467956 207.9507,42.3730939 C207.211811,40.6993923 206.845103,38.8889503 206.845103,36.941768 C206.845103,35.0328729 207.211811,33.2279006 207.9507,31.5377901 C208.684115,29.8476796 209.691193,28.3872928 210.960988,27.1511602 C212.230782,25.9204972 213.69214,24.9469061 215.350535,24.2303867 C217.003457,23.5138674 218.771317,23.1528729 220.648642,23.1528729 Z M116.881276,19.0123757 L116.881276,28.6662431 L124.33037,28.6662431 L124.33037,31.4229282 L116.881276,31.4229282 L116.881276,36.9362983 C116.881276,38.4459116 117.176831,39.868011 117.762469,41.2135359 C118.348107,42.5590608 119.141728,43.7240884 120.13786,44.7140884 C121.133992,45.7040884 122.299794,46.4971823 123.640741,47.0879006 C124.981687,47.6786188 126.410206,47.9685083 127.920823,47.9685083 C129.43144,47.9685083 130.854486,47.6731492 132.195432,47.0879006 C133.536379,46.5026519 134.707654,45.709558 135.698313,44.7140884 C136.688971,43.7186188 137.482593,42.5535912 138.073704,41.2135359 C138.659342,39.8734807 138.954897,38.4459116 138.954897,36.9362983 L141.724362,36.9362983 C141.724362,38.8834807 141.357654,40.6993923 140.618765,42.3676243 C139.879877,44.041326 138.878272,45.4962431 137.608477,46.7269061 C136.338683,47.9575691 134.877325,48.9311602 133.21893,49.6476796 C131.560535,50.3641989 129.798148,50.7251934 127.920823,50.7251934 C125.972346,50.7251934 124.155226,50.3641989 122.485885,49.6476796 C120.81107,48.9311602 119.355185,47.9575691 118.123704,46.7269061 C116.892222,45.4962431 115.917984,44.041326 115.200988,42.3676243 C114.483992,40.6939227 114.122757,38.8834807 114.122757,36.9362983 L114.122757,19.0123757 L116.881276,19.0123757 Z M158.833745,23.1474033 C160.743909,23.1474033 162.550082,23.5083978 164.241317,24.2249171 C165.932551,24.9414365 167.393909,25.9150276 168.630864,27.1456906 C169.862346,28.3763536 170.836584,29.8422099 171.55358,31.5323204 C172.270576,33.2224309 172.631811,35.0274033 172.631811,36.9362983 L172.631811,38.3146409 L147.794198,38.3146409 C148.013128,39.7148619 148.445514,41.000221 149.091358,42.1761878 C149.731728,43.3521547 150.552716,44.3640331 151.548848,45.2118232 C152.544979,46.0596133 153.656049,46.7269061 154.887531,47.2246409 C156.119012,47.7223757 157.438066,47.9685083 158.833745,47.9685083 C161.187243,47.9685083 163.267078,47.3449724 165.073251,46.0924309 C166.873951,44.8453591 168.198477,43.1716575 169.046831,41.071326 L172.084486,41.071326 C171.60284,42.471547 170.935103,43.7569061 170.070329,44.9328729 C169.205556,46.1088398 168.193004,47.1207182 167.032675,47.9685083 C165.872346,48.8162983 164.597078,49.4835912 163.195926,49.981326 C161.794774,50.4790608 160.344362,50.7251934 158.833745,50.7251934 C156.885267,50.7251934 155.068148,50.3641989 153.398807,49.6476796 C151.723992,48.9311602 150.27358,47.9575691 149.036626,46.7269061 C147.805144,45.4962431 146.830905,44.041326 146.108436,42.3676243 C145.39144,40.6939227 145.030206,38.8834807 145.030206,36.9362983 C145.030206,35.0274033 145.39144,33.2224309 146.108436,31.5323204 C146.825432,29.8422099 147.799671,28.3818232 149.036626,27.1456906 C150.268107,25.9150276 151.723992,24.9414365 153.398807,24.2249171 C155.073621,23.5083978 156.885267,23.1474033 158.833745,23.1474033 Z M189.741193,23.1474033 C191.651358,23.1474033 193.457531,23.5083978 195.148765,24.2249171 C196.84,24.9414365 198.301358,25.9150276 199.538313,27.1456906 C200.769794,28.3763536 201.744033,29.8422099 202.461029,31.5323204 C203.178025,33.2224309 203.539259,35.0274033 203.539259,36.9362983 L203.539259,50.7251934 L200.780741,50.7251934 L200.780741,45.2118232 C199.527366,46.869116 197.929177,48.198232 195.9807,49.2101105 C194.032222,50.221989 191.952387,50.7251934 189.741193,50.7251934 C187.792716,50.7251934 185.975597,50.3641989 184.306255,49.6476796 C182.63144,48.9311602 181.181029,47.9575691 179.944074,46.7269061 C178.712593,45.4962431 177.738354,44.041326 177.021358,42.3676243 C176.304362,40.6939227 175.943128,38.8834807 175.943128,36.9362983 C175.943128,35.0274033 176.304362,33.2224309 177.021358,31.5323204 C177.738354,29.8422099 178.712593,28.3818232 179.944074,27.1456906 C181.175556,25.9150276 182.63144,24.9414365 184.306255,24.2249171 C185.98107,23.5083978 187.792716,23.1474033 189.741193,23.1474033 Z M251.561564,23.1474033 C253.471728,23.1474033 255.277901,23.5083978 256.969136,24.2249171 C258.66037,24.9414365 260.121728,25.9150276 261.358683,27.1456906 C262.590165,28.3763536 263.564403,29.8422099 264.281399,31.5323204 C264.998395,33.2224309 265.35963,35.0274033 265.35963,36.9362983 L265.35963,50.7251934 L262.601111,50.7251934 L262.601111,45.2118232 C261.347737,46.869116 259.749547,48.198232 257.80107,49.2101105 C255.852593,50.221989 253.772757,50.7251934 251.561564,50.7251934 C249.613086,50.7251934 247.795967,50.3641989 246.126626,49.6476796 C244.451811,48.9311602 243.001399,47.9575691 241.764444,46.7269061 C240.532963,45.4962431 239.558724,44.041326 238.841728,42.3676243 C238.124733,40.6939227 237.763498,38.8834807 237.763498,36.9362983 C237.763498,35.0274033 238.124733,33.2224309 238.841728,31.5323204 C239.558724,29.8422099 240.532963,28.3818232 241.764444,27.1456906 C242.995926,25.9150276 244.451811,24.9414365 246.126626,24.2249171 C247.795967,23.5083978 249.607613,23.1474033 251.561564,23.1474033 Z M189.741193,25.909558 C188.230576,25.909558 186.807531,26.2049171 185.461111,26.7901657 C184.114691,27.380884 182.948889,28.1685083 181.95823,29.1639779 C180.962099,30.1594475 180.173951,31.3244751 179.58284,32.6645304 C178.991728,34.0045856 178.701646,35.4321547 178.701646,36.9362983 C178.701646,38.4459116 178.997202,39.868011 179.58284,41.2135359 C180.173951,42.5590608 180.962099,43.7240884 181.95823,44.7140884 C182.948889,45.7040884 184.120165,46.4971823 185.461111,47.0879006 C186.807531,47.6731492 188.236049,47.9685083 189.741193,47.9685083 C191.251811,47.9685083 192.674856,47.6731492 194.021276,47.0879006 C195.362222,46.5026519 196.533498,45.709558 197.524156,44.7140884 C198.520288,43.7186188 199.308436,42.5535912 199.899547,41.2135359 C200.490658,39.8734807 200.780741,38.4459116 200.780741,36.9362983 C200.780741,35.4266851 200.485185,34.0045856 199.899547,32.6645304 C199.308436,31.3244751 198.520288,30.1539779 197.524156,29.1639779 C196.528025,28.1739779 195.362222,27.380884 194.021276,26.7901657 C192.674856,26.2049171 191.251811,25.909558 189.741193,25.909558 Z M220.648642,25.909558 C219.138025,25.909558 217.714979,26.2049171 216.36856,26.7901657 C215.02214,27.380884 213.856337,28.1685083 212.865679,29.1639779 C211.869547,30.1594475 211.081399,31.3244751 210.490288,32.6645304 C209.899177,34.0045856 209.609095,35.4321547 209.609095,36.9362983 C209.609095,38.4459116 209.90465,39.868011 210.490288,41.2135359 C211.081399,42.5590608 211.869547,43.7240884 212.865679,44.7140884 C213.856337,45.7040884 215.027613,46.4971823 216.36856,47.0879006 C217.714979,47.6731492 219.143498,47.9685083 220.648642,47.9685083 C222.230412,47.9685083 223.69177,47.6731492 225.038189,47.0879006 C226.379136,46.5026519 227.550412,45.709558 228.54107,44.7140884 C229.537202,43.7186188 230.30893,42.5535912 230.861728,41.2135359 C231.414527,39.8734807 231.688189,38.4459116 231.688189,36.9362983 C231.688189,35.4266851 231.414527,34.0045856 230.861728,32.6645304 C230.30893,31.3244751 229.537202,30.1539779 228.54107,29.1639779 C227.550412,28.1739779 226.379136,27.380884 225.038189,26.7901657 C223.69177,26.2049171 222.230412,25.909558 220.648642,25.909558 Z M251.561564,25.909558 C250.050947,25.909558 248.627901,26.2049171 247.281481,26.7901657 C245.935062,27.380884 244.769259,28.1685083 243.778601,29.1639779 C242.782469,30.1594475 241.994321,31.3244751 241.40321,32.6645304 C240.812099,34.0045856 240.522016,35.4321547 240.522016,36.9362983 C240.522016,38.4459116 240.817572,39.868011 241.40321,41.2135359 C241.994321,42.5590608 242.782469,43.7240884 243.778601,44.7140884 C244.769259,45.7040884 245.940535,46.4971823 247.281481,47.0879006 C248.622428,47.6731492 250.050947,47.9685083 251.561564,47.9685083 C253.072181,47.9685083 254.495226,47.6731492 255.841646,47.0879006 C257.182593,46.5026519 258.353868,45.709558 259.344527,44.7140884 C260.340658,43.7186188 261.128807,42.5535912 261.719918,41.2135359 C262.311029,39.8734807 262.601111,38.4459116 262.601111,36.9362983 C262.601111,35.4266851 262.305556,34.0045856 261.719918,32.6645304 C261.128807,31.3244751 260.340658,30.1539779 259.344527,29.1639779 C258.348395,28.1739779 257.182593,27.380884 255.841646,26.7901657 C254.495226,26.2049171 253.072181,25.909558 251.561564,25.909558 Z M158.833745,25.9040884 C157.432593,25.9040884 156.119012,26.150221 154.887531,26.6479558 C153.656049,27.1456906 152.539506,27.818453 151.548848,28.6607735 C150.552716,29.5085635 149.737202,30.5259116 149.091358,31.7237569 C148.445514,32.9216022 148.013128,34.1960221 147.794198,35.5579558 L169.873292,35.5579558 C169.654362,34.1960221 169.221975,32.9216022 168.576132,31.7237569 C167.930288,30.5313812 167.114774,29.5085635 166.118642,28.6607735 C165.12251,27.8129834 164.000494,27.1456906 162.752593,26.6479558 C161.499218,26.1556906 160.196584,25.9040884 158.833745,25.9040884 Z M254.210617,16.0861326 L256.142675,18.0169061 L252.223827,21.9331492 L250.29177,20.0023757 L254.210617,16.0861326 Z" id="Combined-Shape" fill="#000000"></path>
                </g>
            </g>
        </g>
    </g>
</svg>