<?xml version="1.0" encoding="UTF-8"?>
<svg width="24px" height="24px" viewBox="0 0 24 24" version="1.1" xmlns="http://www.w3.org/2000/svg" xmlns:xlink="http://www.w3.org/1999/xlink">
    <title>4CE4800B-EBAC-42ED-BFA2-1EEFA30EF9F5</title>
    <g id="UI---Opção-1" stroke="none" stroke-width="1" fill="none" fill-rule="evenodd">
        <g id="1.0-Home---Desktop" transform="translate(-409.000000, -1406.000000)">
            <g id="Fale-com-a-gente" transform="translate(369.000000, 1246.000000)">
                <g id="Contatos" transform="translate(0.000000, 40.000000)">
                    <g id="Assets/Icons/Social/Twitter" transform="translate(40.000000, 120.000000)">
                        <rect id="Rectangle" x="0" y="0" width="24" height="24"></rect>
                        <path d="M21,6.77578958 C20.33775,7.0772662 19.626,7.28030148 18.879,7.37182116 C19.64175,6.9034557 20.2275,6.16130025 20.50275,5.27686628 C19.7895,5.71062346 18.999,6.0259434 18.1575,6.19590853 C17.48475,5.45990566 16.524,5 15.462,5 C13.07775,5 11.32575,7.28107055 11.86425,9.64904635 C8.796,9.49138638 6.075,7.98400328 4.25325,5.69293478 C3.28575,7.39489336 3.7515,9.62135972 5.3955,10.7488208 C4.791,10.7288249 4.221,10.5588597 3.72375,10.2750718 C3.68325,12.0293273 4.9095,13.6705291 6.6855,14.0358388 C6.16575,14.1804245 5.5965,14.2142637 5.0175,14.1004409 C5.487,15.6047477 6.8505,16.6991386 8.4675,16.7299016 C6.915,17.9781071 4.959,18.535685 3,18.2988105 C4.63425,19.3732055 6.576,20 8.661,20 C15.5175,20 19.39125,14.0619873 19.15725,8.73615669 C19.87875,8.20165094 20.505,7.53486464 21,6.77578958 Z" id="Path" fill="#494D4D" fill-rule="nonzero"></path>
                    </g>
                </g>
            </g>
        </g>
    </g>
</svg>